<?xml version="1.0" encoding="UTF-8" standalone="no"?>
<svg width="330.553mm" height="247.297mm"
 viewBox="0 0 937 701"
 xmlns="http://www.w3.org/2000/svg" xmlns:xlink="http://www.w3.org/1999/xlink"  version="1.2" baseProfile="tiny">
<title>PyQtSVNGenerator</title>
<desc>SVG generated using Qt+Python</desc>
<defs>
</defs>
<g fill="none" stroke="black" stroke-width="1" fill-rule="evenodd" stroke-linecap="square" stroke-linejoin="bevel" >

<g fill="#ffffff" fill-opacity="1" stroke="none" transform="matrix(1,0,0,1,0,0)"
font-family="Sans Serif" font-size="9" font-weight="400" font-style="normal" 
>
<path vector-effect="non-scaling-stroke" fill-rule="evenodd" d="M0,0 L4685,0 L4685,3505 L0,3505 L0,0"/>
</g>

<g fill="none" stroke="#000000" stroke-opacity="1" stroke-width="2" stroke-linecap="square" stroke-linejoin="bevel" transform="matrix(1,0,0,1,0,0)"
font-family="Ubuntu" font-size="12" font-weight="700" font-style="normal" 
>
<path vector-effect="none" fill-rule="evenodd" d="M302,40 C302,57.6731 287.673,72 270,72 C252.327,72 238,57.6731 238,40 C238,22.3269 252.327,8 270,8 C287.673,8 302,22.3269 302,40 "/>
<text fill="#000000" fill-opacity="1" stroke="none" xml:space="preserve" x="262" y="37" font-family="Ubuntu" font-size="12" font-weight="700" font-style="normal" 
 >w2</text>
<text fill="#000000" fill-opacity="1" stroke="none" xml:space="preserve" x="248" y="52" font-family="Ubuntu" font-size="12" font-weight="700" font-style="normal" 
 >notWall</text>
<path vector-effect="none" fill-rule="evenodd" d="M192,120 C192,137.673 177.673,152 160,152 C142.327,152 128,137.673 128,120 C128,102.327 142.327,88 160,88 C177.673,88 192,102.327 192,120 "/>
<text fill="#000000" fill-opacity="1" stroke="none" xml:space="preserve" x="152" y="117" font-family="Ubuntu" font-size="12" font-weight="700" font-style="normal" 
 >w1</text>
<text fill="#000000" fill-opacity="1" stroke="none" xml:space="preserve" x="148.5" y="132" font-family="Ubuntu" font-size="12" font-weight="700" font-style="normal" 
 >wall</text>
<path vector-effect="none" fill-rule="evenodd" d="M72,40 C72,57.6731 57.6731,72 40,72 C22.3269,72 8,57.6731 8,40 C8,22.3269 22.3269,8 40,8 C57.6731,8 72,22.3269 72,40 "/>
<text fill="#000000" fill-opacity="1" stroke="none" xml:space="preserve" x="19" y="37" font-family="Ubuntu" font-size="12" font-weight="700" font-style="normal" 
 >gualzru</text>
<text fill="#000000" fill-opacity="1" stroke="none" xml:space="preserve" x="24.5" y="52" font-family="Ubuntu" font-size="12" font-weight="700" font-style="normal" 
 >robot</text>
</g>

<g fill="#000000" fill-opacity="1" stroke="#000000" stroke-opacity="1" stroke-width="2" stroke-linecap="square" stroke-linejoin="bevel" transform="matrix(1,0,0,1,0,0)"
font-family="Ubuntu" font-size="12" font-weight="700" font-style="normal" 
>
<polyline fill="none" vector-effect="none" points="67,58 133,102 " />
</g>

<g fill="#000000" fill-opacity="1" stroke="none" transform="matrix(1,0,0,1,0,0)"
font-family="Ubuntu" font-size="12" font-weight="700" font-style="normal" 
>
<path vector-effect="non-scaling-stroke" fill-rule="evenodd" d="M74.828,65.5858 L112.828,65.5858 L112.828,86.5858 L74.828,86.5858 L74.828,65.5858"/>
</g>

<g fill="#ffffff" fill-opacity="1" stroke="none" transform="matrix(1,0,0,1,0,0)"
font-family="Ubuntu" font-size="12" font-weight="700" font-style="normal" 
>
<path vector-effect="non-scaling-stroke" fill-rule="evenodd" d="M76.828,67.0858 L110.828,67.0858 L110.828,85.0858 L76.828,85.0858 L76.828,67.0858"/>
</g>

<g fill="#ffffff" fill-opacity="1" stroke="#000000" stroke-opacity="1" stroke-width="2" stroke-linecap="square" stroke-linejoin="bevel" transform="matrix(1,0,0,1,0,0)"
font-family="Ubuntu" font-size="12" font-weight="700" font-style="normal" 
>
<text fill="#000000" fill-opacity="1" stroke="none" xml:space="preserve" x="78.8125" y="80.5781" font-family="Ubuntu" font-size="12" font-weight="700" font-style="normal" 
 >looks</text>
</g>

<g fill="#000000" fill-opacity="1" stroke="#000000" stroke-opacity="1" stroke-width="2" stroke-linecap="square" stroke-linejoin="bevel" transform="matrix(1,0,0,1,0,0)"
font-family="Ubuntu" font-size="12" font-weight="700" font-style="normal" 
>
<path vector-effect="none" fill-rule="evenodd" d="M133,102 L123.538,89.0963 C120.555,91.2871 118.36,94.4874 117.456,98.1935 L133,102"/>
</g>

<g fill="#000000" fill-opacity="1" stroke="#000000" stroke-opacity="1" stroke-width="2" stroke-linecap="square" stroke-linejoin="bevel" transform="matrix(1,0,0,1,0,0)"
font-family="Ubuntu" font-size="12" font-weight="700" font-style="normal" 
>
<polyline fill="none" vector-effect="none" points="186,102 244,58 " />
</g>

<g fill="#000000" fill-opacity="1" stroke="none" transform="matrix(1,0,0,1,0,0)"
font-family="Ubuntu" font-size="12" font-weight="700" font-style="normal" 
>
<path vector-effect="non-scaling-stroke" fill-rule="evenodd" d="M194.623,74.8303 L223.623,74.8303 L223.623,95.8303 L194.623,95.8303 L194.623,74.8303"/>
</g>

<g fill="#ffffff" fill-opacity="1" stroke="none" transform="matrix(1,0,0,1,0,0)"
font-family="Ubuntu" font-size="12" font-weight="700" font-style="normal" 
>
<path vector-effect="non-scaling-stroke" fill-rule="evenodd" d="M196.623,76.3303 L221.623,76.3303 L221.623,94.3303 L196.623,94.3303 L196.623,76.3303"/>
</g>

<g fill="#ffffff" fill-opacity="1" stroke="#000000" stroke-opacity="1" stroke-width="2" stroke-linecap="square" stroke-linejoin="bevel" transform="matrix(1,0,0,1,0,0)"
font-family="Ubuntu" font-size="12" font-weight="700" font-style="normal" 
>
<text fill="#000000" fill-opacity="1" stroke="none" xml:space="preserve" x="198.609" y="89.8281" font-family="Ubuntu" font-size="12" font-weight="700" font-style="normal" 
 >link</text>
</g>

<g fill="#000000" fill-opacity="1" stroke="#000000" stroke-opacity="1" stroke-width="2" stroke-linecap="square" stroke-linejoin="bevel" transform="matrix(1,0,0,1,0,0)"
font-family="Ubuntu" font-size="12" font-weight="700" font-style="normal" 
>
<path vector-effect="none" fill-rule="evenodd" d="M244,58 L228.623,62.4346 C229.674,66.0859 231.99,69.2013 235.066,71.2756 L244,58"/>
</g>
</g>
</svg>
