<?xml version="1.0" encoding="UTF-8" standalone="no"?>
<svg width="330.553mm" height="247.297mm"
 viewBox="0 0 937 701"
 xmlns="http://www.w3.org/2000/svg" xmlns:xlink="http://www.w3.org/1999/xlink"  version="1.2" baseProfile="tiny">
<title>PyQtSVNGenerator</title>
<desc>SVG generated using Qt+Python</desc>
<defs>
</defs>
<g fill="none" stroke="black" stroke-width="1" fill-rule="evenodd" stroke-linecap="square" stroke-linejoin="bevel" >

<g fill="#ffffff" fill-opacity="1" stroke="none" transform="matrix(1,0,0,1,0,0)"
font-family="Sans Serif" font-size="9" font-weight="400" font-style="normal" 
>
<path vector-effect="non-scaling-stroke" fill-rule="evenodd" d="M0,0 L4685,0 L4685,3505 L0,3505 L0,0"/>
</g>

<g fill="none" stroke="#000000" stroke-opacity="1" stroke-width="2" stroke-linecap="square" stroke-linejoin="bevel" transform="matrix(1,0,0,1,0,0)"
font-family="Ubuntu" font-size="12" font-weight="700" font-style="normal" 
>
<path vector-effect="none" fill-rule="evenodd" d="M72,160 C72,177.673 57.6731,192 40,192 C22.3269,192 8,177.673 8,160 C8,142.327 22.3269,128 40,128 C57.6731,128 72,142.327 72,160 "/>
<text fill="#000000" fill-opacity="1" stroke="none" xml:space="preserve" x="26.5" y="157" font-family="Ubuntu" font-size="12" font-weight="700" font-style="normal" 
 >floor</text>
<text fill="#000000" fill-opacity="1" stroke="none" xml:space="preserve" x="26" y="172" font-family="Ubuntu" font-size="12" font-weight="700" font-style="normal" 
 >room</text>
<path vector-effect="none" fill-rule="evenodd" d="M192,40 C192,57.6731 177.673,72 160,72 C142.327,72 128,57.6731 128,40 C128,22.3269 142.327,8 160,8 C177.673,8 192,22.3269 192,40 "/>
<text fill="#000000" fill-opacity="1" stroke="none" xml:space="preserve" x="144.5" y="37" font-family="Ubuntu" font-size="12" font-weight="700" font-style="normal" 
 >robot</text>
<text fill="#000000" fill-opacity="1" stroke="none" xml:space="preserve" x="144.5" y="52" font-family="Ubuntu" font-size="12" font-weight="700" font-style="normal" 
 >robot</text>
<path vector-effect="none" fill-rule="evenodd" d="M392,40 C392,57.6731 377.673,72 360,72 C342.327,72 328,57.6731 328,40 C328,22.3269 342.327,8 360,8 C377.673,8 392,22.3269 392,40 "/>
<text fill="#000000" fill-opacity="1" stroke="none" xml:space="preserve" x="352" y="37" font-family="Ubuntu" font-size="12" font-weight="700" font-style="normal" 
 >w4</text>
<text fill="#000000" fill-opacity="1" stroke="none" xml:space="preserve" x="348.5" y="52" font-family="Ubuntu" font-size="12" font-weight="700" font-style="normal" 
 >wall</text>
<path vector-effect="none" fill-rule="evenodd" d="M302,150 C302,167.673 287.673,182 270,182 C252.327,182 238,167.673 238,150 C238,132.327 252.327,118 270,118 C287.673,118 302,132.327 302,150 "/>
<text fill="#000000" fill-opacity="1" stroke="none" xml:space="preserve" x="262" y="147" font-family="Ubuntu" font-size="12" font-weight="700" font-style="normal" 
 >w3</text>
<text fill="#000000" fill-opacity="1" stroke="none" xml:space="preserve" x="258.5" y="162" font-family="Ubuntu" font-size="12" font-weight="700" font-style="normal" 
 >wall</text>
<path vector-effect="none" fill-rule="evenodd" d="M162,150 C162,167.673 147.673,182 130,182 C112.327,182 98,167.673 98,150 C98,132.327 112.327,118 130,118 C147.673,118 162,132.327 162,150 "/>
<text fill="#000000" fill-opacity="1" stroke="none" xml:space="preserve" x="122" y="147" font-family="Ubuntu" font-size="12" font-weight="700" font-style="normal" 
 >w2</text>
<text fill="#000000" fill-opacity="1" stroke="none" xml:space="preserve" x="118.5" y="162" font-family="Ubuntu" font-size="12" font-weight="700" font-style="normal" 
 >wall</text>
<path vector-effect="none" fill-rule="evenodd" d="M72,40 C72,57.6731 57.6731,72 40,72 C22.3269,72 8,57.6731 8,40 C8,22.3269 22.3269,8 40,8 C57.6731,8 72,22.3269 72,40 "/>
<text fill="#000000" fill-opacity="1" stroke="none" xml:space="preserve" x="32" y="37" font-family="Ubuntu" font-size="12" font-weight="700" font-style="normal" 
 >w1</text>
<text fill="#000000" fill-opacity="1" stroke="none" xml:space="preserve" x="28.5" y="52" font-family="Ubuntu" font-size="12" font-weight="700" font-style="normal" 
 >wall</text>
</g>

<g fill="#000000" fill-opacity="1" stroke="#000000" stroke-opacity="1" stroke-width="2" stroke-linecap="square" stroke-linejoin="bevel" transform="matrix(1,0,0,1,0,0)"
font-family="Ubuntu" font-size="12" font-weight="700" font-style="normal" 
>
<polyline fill="none" vector-effect="none" points="41,129 40,72 " />
</g>

<g fill="#000000" fill-opacity="1" stroke="none" transform="matrix(1,0,0,1,0,0)"
font-family="Ubuntu" font-size="12" font-weight="700" font-style="normal" 
>
<path vector-effect="non-scaling-stroke" fill-rule="evenodd" d="M26.1403,97.9988 L55.1403,97.9988 L55.1403,118.999 L26.1403,118.999 L26.1403,97.9988"/>
</g>

<g fill="#ffffff" fill-opacity="1" stroke="none" transform="matrix(1,0,0,1,0,0)"
font-family="Ubuntu" font-size="12" font-weight="700" font-style="normal" 
>
<path vector-effect="non-scaling-stroke" fill-rule="evenodd" d="M28.1403,99.4988 L53.1403,99.4988 L53.1403,117.499 L28.1403,117.499 L28.1403,99.4988"/>
</g>

<g fill="#ffffff" fill-opacity="1" stroke="#000000" stroke-opacity="1" stroke-width="2" stroke-linecap="square" stroke-linejoin="bevel" transform="matrix(1,0,0,1,0,0)"
font-family="Ubuntu" font-size="12" font-weight="700" font-style="normal" 
>
<text fill="#000000" fill-opacity="1" stroke="none" xml:space="preserve" x="30.125" y="112.984" font-family="Ubuntu" font-size="12" font-weight="700" font-style="normal" 
 >link</text>
</g>

<g fill="#000000" fill-opacity="1" stroke="#000000" stroke-opacity="1" stroke-width="2" stroke-linecap="square" stroke-linejoin="bevel" transform="matrix(1,0,0,1,0,0)"
font-family="Ubuntu" font-size="12" font-weight="700" font-style="normal" 
>
<path vector-effect="none" fill-rule="evenodd" d="M40,72 L34.5404,87.0443 C36.2441,87.6627 38.0827,88 40,88 C41.9307,88 43.7815,87.658 45.4952,87.0314 L40,72"/>
</g>

<g fill="#000000" fill-opacity="1" stroke="#000000" stroke-opacity="1" stroke-width="2" stroke-linecap="square" stroke-linejoin="bevel" transform="matrix(1,0,0,1,0,0)"
font-family="Ubuntu" font-size="12" font-weight="700" font-style="normal" 
>
<polyline fill="none" vector-effect="none" points="61,65 109,125 " />
</g>

<g fill="#000000" fill-opacity="1" stroke="none" transform="matrix(1,0,0,1,0,0)"
font-family="Ubuntu" font-size="12" font-weight="700" font-style="normal" 
>
<path vector-effect="non-scaling-stroke" fill-rule="evenodd" d="M65.9455,78.7991 L94.9455,78.7991 L94.9455,99.7991 L65.9455,99.7991 L65.9455,78.7991"/>
</g>

<g fill="#ffffff" fill-opacity="1" stroke="none" transform="matrix(1,0,0,1,0,0)"
font-family="Ubuntu" font-size="12" font-weight="700" font-style="normal" 
>
<path vector-effect="non-scaling-stroke" fill-rule="evenodd" d="M67.9455,80.2991 L92.9455,80.2991 L92.9455,98.2991 L67.9455,98.2991 L67.9455,80.2991"/>
</g>

<g fill="#ffffff" fill-opacity="1" stroke="#000000" stroke-opacity="1" stroke-width="2" stroke-linecap="square" stroke-linejoin="bevel" transform="matrix(1,0,0,1,0,0)"
font-family="Ubuntu" font-size="12" font-weight="700" font-style="normal" 
>
<text fill="#000000" fill-opacity="1" stroke="none" xml:space="preserve" x="69.9375" y="93.7969" font-family="Ubuntu" font-size="12" font-weight="700" font-style="normal" 
 >link</text>
</g>

<g fill="#000000" fill-opacity="1" stroke="#000000" stroke-opacity="1" stroke-width="2" stroke-linecap="square" stroke-linejoin="bevel" transform="matrix(1,0,0,1,0,0)"
font-family="Ubuntu" font-size="12" font-weight="700" font-style="normal" 
>
<path vector-effect="none" fill-rule="evenodd" d="M109,125 L103.718,109.892 C100.148,111.14 97.1555,113.618 95.2477,116.818 L109,125"/>
</g>

<g fill="#000000" fill-opacity="1" stroke="#000000" stroke-opacity="1" stroke-width="2" stroke-linecap="square" stroke-linejoin="bevel" transform="matrix(1,0,0,1,0,0)"
font-family="Ubuntu" font-size="12" font-weight="700" font-style="normal" 
>
<polyline fill="none" vector-effect="none" points="163,151 238,150 " />
</g>

<g fill="#000000" fill-opacity="1" stroke="none" transform="matrix(1,0,0,1,0,0)"
font-family="Ubuntu" font-size="12" font-weight="700" font-style="normal" 
>
<path vector-effect="non-scaling-stroke" fill-rule="evenodd" d="M178.001,140.107 L207.001,140.107 L207.001,161.107 L178.001,161.107 L178.001,140.107"/>
</g>

<g fill="#ffffff" fill-opacity="1" stroke="none" transform="matrix(1,0,0,1,0,0)"
font-family="Ubuntu" font-size="12" font-weight="700" font-style="normal" 
>
<path vector-effect="non-scaling-stroke" fill-rule="evenodd" d="M180.001,141.607 L205.001,141.607 L205.001,159.607 L180.001,159.607 L180.001,141.607"/>
</g>

<g fill="#ffffff" fill-opacity="1" stroke="#000000" stroke-opacity="1" stroke-width="2" stroke-linecap="square" stroke-linejoin="bevel" transform="matrix(1,0,0,1,0,0)"
font-family="Ubuntu" font-size="12" font-weight="700" font-style="normal" 
>
<text fill="#000000" fill-opacity="1" stroke="none" xml:space="preserve" x="182" y="155.094" font-family="Ubuntu" font-size="12" font-weight="700" font-style="normal" 
 >link</text>
</g>

<g fill="#000000" fill-opacity="1" stroke="#000000" stroke-opacity="1" stroke-width="2" stroke-linecap="square" stroke-linejoin="bevel" transform="matrix(1,0,0,1,0,0)"
font-family="Ubuntu" font-size="12" font-weight="700" font-style="normal" 
>
<path vector-effect="none" fill-rule="evenodd" d="M238,150 L222.956,144.54 C222.337,146.244 222,148.083 222,150 C222,151.931 222.342,153.782 222.969,155.495 L238,150"/>
</g>

<g fill="#000000" fill-opacity="1" stroke="#000000" stroke-opacity="1" stroke-width="2" stroke-linecap="square" stroke-linejoin="bevel" transform="matrix(1,0,0,1,0,0)"
font-family="Ubuntu" font-size="12" font-weight="700" font-style="normal" 
>
<polyline fill="none" vector-effect="none" points="291,126 339,64 " />
</g>

<g fill="#000000" fill-opacity="1" stroke="none" transform="matrix(1,0,0,1,0,0)"
font-family="Ubuntu" font-size="12" font-weight="700" font-style="normal" 
>
<path vector-effect="non-scaling-stroke" fill-rule="evenodd" d="M296.046,91.2817 L325.046,91.2817 L325.046,112.282 L296.046,112.282 L296.046,91.2817"/>
</g>

<g fill="#ffffff" fill-opacity="1" stroke="none" transform="matrix(1,0,0,1,0,0)"
font-family="Ubuntu" font-size="12" font-weight="700" font-style="normal" 
>
<path vector-effect="non-scaling-stroke" fill-rule="evenodd" d="M298.046,92.7817 L323.046,92.7817 L323.046,110.782 L298.046,110.782 L298.046,92.7817"/>
</g>

<g fill="#ffffff" fill-opacity="1" stroke="#000000" stroke-opacity="1" stroke-width="2" stroke-linecap="square" stroke-linejoin="bevel" transform="matrix(1,0,0,1,0,0)"
font-family="Ubuntu" font-size="12" font-weight="700" font-style="normal" 
>
<text fill="#000000" fill-opacity="1" stroke="none" xml:space="preserve" x="300.031" y="106.281" font-family="Ubuntu" font-size="12" font-weight="700" font-style="normal" 
 >link</text>
</g>

<g fill="#000000" fill-opacity="1" stroke="#000000" stroke-opacity="1" stroke-width="2" stroke-linecap="square" stroke-linejoin="bevel" transform="matrix(1,0,0,1,0,0)"
font-family="Ubuntu" font-size="12" font-weight="700" font-style="normal" 
>
<path vector-effect="none" fill-rule="evenodd" d="M339,64 L325.248,72.1832 C327.157,75.3834 330.15,77.8612 333.721,79.1087 L339,64"/>
</g>
</g>
</svg>
