<?xml version="1.0" encoding="UTF-8" standalone="no"?>
<svg width="330.553mm" height="247.297mm"
 viewBox="0 0 937 701"
 xmlns="http://www.w3.org/2000/svg" xmlns:xlink="http://www.w3.org/1999/xlink"  version="1.2" baseProfile="tiny">
<title>PyQtSVNGenerator</title>
<desc>SVG generated using Qt+Python</desc>
<defs>
</defs>
<g fill="none" stroke="black" stroke-width="1" fill-rule="evenodd" stroke-linecap="square" stroke-linejoin="bevel" >

<g fill="#ffffff" fill-opacity="1" stroke="none" transform="matrix(1,0,0,1,0,0)"
font-family="Sans Serif" font-size="9" font-weight="400" font-style="normal" 
>
<path vector-effect="non-scaling-stroke" fill-rule="evenodd" d="M0,0 L4685,0 L4685,3505 L0,3505 L0,0"/>
</g>

<g fill="none" stroke="#000000" stroke-opacity="1" stroke-width="2" stroke-linecap="square" stroke-linejoin="bevel" transform="matrix(1,0,0,1,0,0)"
font-family="Ubuntu" font-size="12" font-weight="700" font-style="normal" 
>
<path vector-effect="none" fill-rule="evenodd" d="M202,110 C202,127.673 187.673,142 170,142 C152.327,142 138,127.673 138,110 C138,92.3269 152.327,78 170,78 C187.673,78 202,92.3269 202,110 "/>
<text fill="#000000" fill-opacity="1" stroke="none" xml:space="preserve" x="156" y="107" font-family="Ubuntu" font-size="12" font-weight="700" font-style="normal" 
 >room</text>
<text fill="#000000" fill-opacity="1" stroke="none" xml:space="preserve" x="156" y="122" font-family="Ubuntu" font-size="12" font-weight="700" font-style="normal" 
 >room</text>
<path vector-effect="none" fill-rule="evenodd" d="M72,40 C72,57.6731 57.6731,72 40,72 C22.3269,72 8,57.6731 8,40 C8,22.3269 22.3269,8 40,8 C57.6731,8 72,22.3269 72,40 "/>
<text fill="#000000" fill-opacity="1" stroke="none" xml:space="preserve" x="19" y="37" font-family="Ubuntu" font-size="12" font-weight="700" font-style="normal" 
 >gualzru</text>
<text fill="#000000" fill-opacity="1" stroke="none" xml:space="preserve" x="24.5" y="52" font-family="Ubuntu" font-size="12" font-weight="700" font-style="normal" 
 >robot</text>
</g>

<g fill="#000000" fill-opacity="1" stroke="#000000" stroke-opacity="1" stroke-width="2" stroke-linecap="square" stroke-linejoin="bevel" transform="matrix(1,0,0,1,0,0)"
font-family="Ubuntu" font-size="12" font-weight="700" font-style="normal" 
>
<polyline fill="none" vector-effect="none" points="69,56 141,94 " />
</g>

<g fill="#000000" fill-opacity="1" stroke="none" transform="matrix(1,0,0,1,0,0)"
font-family="Ubuntu" font-size="12" font-weight="700" font-style="normal" 
>
<path vector-effect="non-scaling-stroke" fill-rule="evenodd" d="M89.4376,61.242 L107.438,61.242 L107.438,82.242 L89.4376,82.242 L89.4376,61.242"/>
</g>

<g fill="#ffffff" fill-opacity="1" stroke="none" transform="matrix(1,0,0,1,0,0)"
font-family="Ubuntu" font-size="12" font-weight="700" font-style="normal" 
>
<path vector-effect="non-scaling-stroke" fill-rule="evenodd" d="M91.4376,62.742 L105.438,62.742 L105.438,80.742 L91.4376,80.742 L91.4376,62.742"/>
</g>

<g fill="#ffffff" fill-opacity="1" stroke="#000000" stroke-opacity="1" stroke-width="2" stroke-linecap="square" stroke-linejoin="bevel" transform="matrix(1,0,0,1,0,0)"
font-family="Ubuntu" font-size="12" font-weight="700" font-style="normal" 
>
<text fill="#000000" fill-opacity="1" stroke="none" xml:space="preserve" x="93.4375" y="76.2344" font-family="Ubuntu" font-size="12" font-weight="700" font-style="normal" 
 >in</text>
</g>

<g fill="#000000" fill-opacity="1" stroke="#000000" stroke-opacity="1" stroke-width="2" stroke-linecap="square" stroke-linejoin="bevel" transform="matrix(1,0,0,1,0,0)"
font-family="Ubuntu" font-size="12" font-weight="700" font-style="normal" 
>
<path vector-effect="none" fill-rule="evenodd" d="M141,94 L130.359,82.0514 C127.615,84.4967 125.719,87.8731 125.166,91.6846 L141,94"/>
</g>
</g>
</svg>
