<?xml version="1.0" encoding="UTF-8" standalone="no"?>
<svg width="330.553mm" height="247.297mm"
 viewBox="0 0 937 701"
 xmlns="http://www.w3.org/2000/svg" xmlns:xlink="http://www.w3.org/1999/xlink"  version="1.2" baseProfile="tiny">
<title>PyQtSVNGenerator</title>
<desc>SVG generated using Qt+Python</desc>
<defs>
</defs>
<g fill="none" stroke="black" stroke-width="1" fill-rule="evenodd" stroke-linecap="square" stroke-linejoin="bevel" >

<g fill="#ffffff" fill-opacity="1" stroke="none" transform="matrix(1,0,0,1,0,0)"
font-family="Sans Serif" font-size="9" font-weight="400" font-style="normal" 
>
<path vector-effect="non-scaling-stroke" fill-rule="evenodd" d="M0,0 L4685,0 L4685,3505 L0,3505 L0,0"/>
</g>

<g fill="none" stroke="#000000" stroke-opacity="1" stroke-width="2" stroke-linecap="square" stroke-linejoin="bevel" transform="matrix(1,0,0,1,0,0)"
font-family="Ubuntu" font-size="12" font-weight="700" font-style="normal" 
>
<path vector-effect="none" fill-rule="evenodd" d="M72,40 C72,57.6731 57.6731,72 40,72 C22.3269,72 8,57.6731 8,40 C8,22.3269 22.3269,8 40,8 C57.6731,8 72,22.3269 72,40 "/>
<text fill="#000000" fill-opacity="1" stroke="none" xml:space="preserve" x="19" y="37" font-family="Ubuntu" font-size="12" font-weight="700" font-style="normal" 
 >gualzru</text>
<text fill="#000000" fill-opacity="1" stroke="none" xml:space="preserve" x="24.5" y="52" font-family="Ubuntu" font-size="12" font-weight="700" font-style="normal" 
 >robot</text>
<path vector-effect="none" fill-rule="evenodd" d="M252,40 C252,57.6731 237.673,72 220,72 C202.327,72 188,57.6731 188,40 C188,22.3269 202.327,8 220,8 C237.673,8 252,22.3269 252,40 "/>
<text fill="#000000" fill-opacity="1" stroke="none" xml:space="preserve" x="206.5" y="37" font-family="Ubuntu" font-size="12" font-weight="700" font-style="normal" 
 >floor</text>
<text fill="#000000" fill-opacity="1" stroke="none" xml:space="preserve" x="204.5" y="52" font-family="Ubuntu" font-size="12" font-weight="700" font-style="normal" 
 >plane</text>
</g>

<g fill="#000000" fill-opacity="1" stroke="#000000" stroke-opacity="1" stroke-width="2" stroke-linecap="square" stroke-linejoin="bevel" transform="matrix(1,0,0,1,0,0)"
font-family="Ubuntu" font-size="12" font-weight="700" font-style="normal" 
>
<polyline fill="none" vector-effect="none" points="73,40 188,40 " />
</g>

<g fill="#000000" fill-opacity="1" stroke="none" transform="matrix(1,0,0,1,0,0)"
font-family="Ubuntu" font-size="12" font-weight="700" font-style="normal" 
>
<path vector-effect="non-scaling-stroke" fill-rule="evenodd" d="M83.5003,30.0696 L161.5,30.0696 L161.5,51.0696 L83.5003,51.0696 L83.5003,30.0696"/>
</g>

<g fill="#ffffff" fill-opacity="1" stroke="none" transform="matrix(1,0,0,1,0,0)"
font-family="Ubuntu" font-size="12" font-weight="700" font-style="normal" 
>
<path vector-effect="non-scaling-stroke" fill-rule="evenodd" d="M85.5003,31.5696 L159.5,31.5696 L159.5,49.5696 L85.5003,49.5696 L85.5003,31.5696"/>
</g>

<g fill="#ffffff" fill-opacity="1" stroke="#000000" stroke-opacity="1" stroke-width="2" stroke-linecap="square" stroke-linejoin="bevel" transform="matrix(1,0,0,1,0,0)"
font-family="Ubuntu" font-size="12" font-weight="700" font-style="normal" 
>
<text fill="#000000" fill-opacity="1" stroke="none" xml:space="preserve" x="87.5" y="45.0625" font-family="Ubuntu" font-size="12" font-weight="700" font-style="normal" 
 >lookTowards</text>
</g>

<g fill="#000000" fill-opacity="1" stroke="#000000" stroke-opacity="1" stroke-width="2" stroke-linecap="square" stroke-linejoin="bevel" transform="matrix(1,0,0,1,0,0)"
font-family="Ubuntu" font-size="12" font-weight="700" font-style="normal" 
>
<path vector-effect="none" fill-rule="evenodd" d="M188,40 L172.956,34.5404 C172.337,36.2441 172,38.0827 172,40 C172,41.9307 172.342,43.7815 172.969,45.4952 L188,40"/>
</g>
</g>
</svg>
