<?xml version="1.0" encoding="UTF-8" standalone="no"?>
<svg width="330.553mm" height="247.297mm"
 viewBox="0 0 937 701"
 xmlns="http://www.w3.org/2000/svg" xmlns:xlink="http://www.w3.org/1999/xlink"  version="1.2" baseProfile="tiny">
<title>PyQtSVNGenerator</title>
<desc>SVG generated using Qt+Python</desc>
<defs>
</defs>
<g fill="none" stroke="black" stroke-width="1" fill-rule="evenodd" stroke-linecap="square" stroke-linejoin="bevel" >

<g fill="#ffffff" fill-opacity="1" stroke="none" transform="matrix(1,0,0,1,0,0)"
font-family="Sans Serif" font-size="9" font-weight="400" font-style="normal" 
>
<path vector-effect="non-scaling-stroke" fill-rule="evenodd" d="M0,0 L4685,0 L4685,3505 L0,3505 L0,0"/>
</g>

<g fill="none" stroke="#000000" stroke-opacity="1" stroke-width="2" stroke-linecap="square" stroke-linejoin="bevel" transform="matrix(1,0,0,1,0,0)"
font-family="Ubuntu" font-size="12" font-weight="700" font-style="normal" 
>
<path vector-effect="none" fill-rule="evenodd" d="M332,40 C332,57.6731 317.673,72 300,72 C282.327,72 268,57.6731 268,40 C268,22.3269 282.327,8 300,8 C317.673,8 332,22.3269 332,40 "/>
<text fill="#000000" fill-opacity="1" stroke="none" xml:space="preserve" x="285.5" y="37" font-family="Ubuntu" font-size="12" font-weight="700" font-style="normal" 
 >table</text>
<text fill="#000000" fill-opacity="1" stroke="none" xml:space="preserve" x="285.5" y="52" font-family="Ubuntu" font-size="12" font-weight="700" font-style="normal" 
 >table</text>
<path vector-effect="none" fill-rule="evenodd" d="M452,40 C452,57.6731 437.673,72 420,72 C402.327,72 388,57.6731 388,40 C388,22.3269 402.327,8 420,8 C437.673,8 452,22.3269 452,40 "/>
<text fill="#000000" fill-opacity="1" stroke="none" xml:space="preserve" x="402.5" y="37" font-family="Ubuntu" font-size="12" font-weight="700" font-style="normal" 
 >object</text>
<text fill="#000000" fill-opacity="1" stroke="none" xml:space="preserve" x="402.5" y="52" font-family="Ubuntu" font-size="12" font-weight="700" font-style="normal" 
 >object</text>
<path vector-effect="none" fill-rule="evenodd" d="M202,110 C202,127.673 187.673,142 170,142 C152.327,142 138,127.673 138,110 C138,92.3269 152.327,78 170,78 C187.673,78 202,92.3269 202,110 "/>
<text fill="#000000" fill-opacity="1" stroke="none" xml:space="preserve" x="156" y="107" font-family="Ubuntu" font-size="12" font-weight="700" font-style="normal" 
 >room</text>
<text fill="#000000" fill-opacity="1" stroke="none" xml:space="preserve" x="156" y="122" font-family="Ubuntu" font-size="12" font-weight="700" font-style="normal" 
 >room</text>
<path vector-effect="none" fill-rule="evenodd" d="M72,40 C72,57.6731 57.6731,72 40,72 C22.3269,72 8,57.6731 8,40 C8,22.3269 22.3269,8 40,8 C57.6731,8 72,22.3269 72,40 "/>
<text fill="#000000" fill-opacity="1" stroke="none" xml:space="preserve" x="19" y="37" font-family="Ubuntu" font-size="12" font-weight="700" font-style="normal" 
 >gualzru</text>
<text fill="#000000" fill-opacity="1" stroke="none" xml:space="preserve" x="24.5" y="52" font-family="Ubuntu" font-size="12" font-weight="700" font-style="normal" 
 >robot</text>
</g>

<g fill="#000000" fill-opacity="1" stroke="#000000" stroke-opacity="1" stroke-width="2" stroke-linecap="square" stroke-linejoin="bevel" transform="matrix(1,0,0,1,0,0)"
font-family="Ubuntu" font-size="12" font-weight="700" font-style="normal" 
>
<polyline fill="none" vector-effect="none" points="69,56 141,94 " />
</g>

<g fill="#000000" fill-opacity="1" stroke="none" transform="matrix(1,0,0,1,0,0)"
font-family="Ubuntu" font-size="12" font-weight="700" font-style="normal" 
>
<path vector-effect="non-scaling-stroke" fill-rule="evenodd" d="M89.4376,61.242 L107.438,61.242 L107.438,82.242 L89.4376,82.242 L89.4376,61.242"/>
</g>

<g fill="#ffffff" fill-opacity="1" stroke="none" transform="matrix(1,0,0,1,0,0)"
font-family="Ubuntu" font-size="12" font-weight="700" font-style="normal" 
>
<path vector-effect="non-scaling-stroke" fill-rule="evenodd" d="M91.4376,62.742 L105.438,62.742 L105.438,80.742 L91.4376,80.742 L91.4376,62.742"/>
</g>

<g fill="#ffffff" fill-opacity="1" stroke="#000000" stroke-opacity="1" stroke-width="2" stroke-linecap="square" stroke-linejoin="bevel" transform="matrix(1,0,0,1,0,0)"
font-family="Ubuntu" font-size="12" font-weight="700" font-style="normal" 
>
<text fill="#000000" fill-opacity="1" stroke="none" xml:space="preserve" x="93.4375" y="76.2344" font-family="Ubuntu" font-size="12" font-weight="700" font-style="normal" 
 >in</text>
</g>

<g fill="#000000" fill-opacity="1" stroke="#000000" stroke-opacity="1" stroke-width="2" stroke-linecap="square" stroke-linejoin="bevel" transform="matrix(1,0,0,1,0,0)"
font-family="Ubuntu" font-size="12" font-weight="700" font-style="normal" 
>
<path vector-effect="none" fill-rule="evenodd" d="M141,94 L130.359,82.0514 C127.615,84.4967 125.719,87.8731 125.166,91.6846 L141,94"/>
</g>

<g fill="#000000" fill-opacity="1" stroke="#000000" stroke-opacity="1" stroke-width="2" stroke-linecap="square" stroke-linejoin="bevel" transform="matrix(1,0,0,1,0,0)"
font-family="Ubuntu" font-size="12" font-weight="700" font-style="normal" 
>
<polyline fill="none" vector-effect="none" points="272,56 198,94 " />
</g>

<g fill="#000000" fill-opacity="1" stroke="none" transform="matrix(1,0,0,1,0,0)"
font-family="Ubuntu" font-size="12" font-weight="700" font-style="normal" 
>
<path vector-effect="non-scaling-stroke" fill-rule="evenodd" d="M233.604,61.3212 L251.604,61.3212 L251.604,82.3212 L233.604,82.3212 L233.604,61.3212"/>
</g>

<g fill="#ffffff" fill-opacity="1" stroke="none" transform="matrix(1,0,0,1,0,0)"
font-family="Ubuntu" font-size="12" font-weight="700" font-style="normal" 
>
<path vector-effect="non-scaling-stroke" fill-rule="evenodd" d="M235.604,62.8212 L249.604,62.8212 L249.604,80.8212 L235.604,80.8212 L235.604,62.8212"/>
</g>

<g fill="#ffffff" fill-opacity="1" stroke="#000000" stroke-opacity="1" stroke-width="2" stroke-linecap="square" stroke-linejoin="bevel" transform="matrix(1,0,0,1,0,0)"
font-family="Ubuntu" font-size="12" font-weight="700" font-style="normal" 
>
<text fill="#000000" fill-opacity="1" stroke="none" xml:space="preserve" x="237.594" y="76.3125" font-family="Ubuntu" font-size="12" font-weight="700" font-style="normal" 
 >in</text>
</g>

<g fill="#000000" fill-opacity="1" stroke="#000000" stroke-opacity="1" stroke-width="2" stroke-linecap="square" stroke-linejoin="bevel" transform="matrix(1,0,0,1,0,0)"
font-family="Ubuntu" font-size="12" font-weight="700" font-style="normal" 
>
<path vector-effect="none" fill-rule="evenodd" d="M198,94 L213.835,91.6968 C213.286,87.8864 211.394,84.51 208.654,82.063 L198,94"/>
</g>

<g fill="#000000" fill-opacity="1" stroke="#000000" stroke-opacity="1" stroke-width="2" stroke-linecap="square" stroke-linejoin="bevel" transform="matrix(1,0,0,1,0,0)"
font-family="Ubuntu" font-size="12" font-weight="700" font-style="normal" 
>
<polyline fill="none" vector-effect="none" points="389,41 332,40 " />
</g>

<g fill="#000000" fill-opacity="1" stroke="none" transform="matrix(1,0,0,1,0,0)"
font-family="Ubuntu" font-size="12" font-weight="700" font-style="normal" 
>
<path vector-effect="non-scaling-stroke" fill-rule="evenodd" d="M359.499,30.1403 L377.499,30.1403 L377.499,51.1403 L359.499,51.1403 L359.499,30.1403"/>
</g>

<g fill="#ffffff" fill-opacity="1" stroke="none" transform="matrix(1,0,0,1,0,0)"
font-family="Ubuntu" font-size="12" font-weight="700" font-style="normal" 
>
<path vector-effect="non-scaling-stroke" fill-rule="evenodd" d="M361.499,31.6403 L375.499,31.6403 L375.499,49.6403 L361.499,49.6403 L361.499,31.6403"/>
</g>

<g fill="#ffffff" fill-opacity="1" stroke="#000000" stroke-opacity="1" stroke-width="2" stroke-linecap="square" stroke-linejoin="bevel" transform="matrix(1,0,0,1,0,0)"
font-family="Ubuntu" font-size="12" font-weight="700" font-style="normal" 
>
<text fill="#000000" fill-opacity="1" stroke="none" xml:space="preserve" x="363.484" y="45.125" font-family="Ubuntu" font-size="12" font-weight="700" font-style="normal" 
 >in</text>
</g>

<g fill="#000000" fill-opacity="1" stroke="#000000" stroke-opacity="1" stroke-width="2" stroke-linecap="square" stroke-linejoin="bevel" transform="matrix(1,0,0,1,0,0)"
font-family="Ubuntu" font-size="12" font-weight="700" font-style="normal" 
>
<path vector-effect="none" fill-rule="evenodd" d="M332,40 L347.038,45.476 C347.661,43.7677 348,41.9235 348,40 C348,38.0755 347.66,36.2303 347.037,34.5212 L332,40"/>
</g>

<g fill="#000000" fill-opacity="1" stroke="#000000" stroke-opacity="1" stroke-width="2" stroke-linecap="square" stroke-linejoin="bevel" transform="matrix(1,0,0,1,0,0)"
font-family="Ubuntu" font-size="12" font-weight="700" font-style="normal" 
>
<polyline fill="none" vector-effect="none" points="73,40 268,40 " />
</g>

<g fill="#000000" fill-opacity="1" stroke="none" transform="matrix(1,0,0,1,0,0)"
font-family="Ubuntu" font-size="12" font-weight="700" font-style="normal" 
>
<path vector-effect="non-scaling-stroke" fill-rule="evenodd" d="M130.5,30.041 L194.5,30.041 L194.5,51.041 L130.5,51.041 L130.5,30.041"/>
</g>

<g fill="#ffffff" fill-opacity="1" stroke="none" transform="matrix(1,0,0,1,0,0)"
font-family="Ubuntu" font-size="12" font-weight="700" font-style="normal" 
>
<path vector-effect="non-scaling-stroke" fill-rule="evenodd" d="M132.5,31.541 L192.5,31.541 L192.5,49.541 L132.5,49.541 L132.5,31.541"/>
</g>

<g fill="#ffffff" fill-opacity="1" stroke="#000000" stroke-opacity="1" stroke-width="2" stroke-linecap="square" stroke-linejoin="bevel" transform="matrix(1,0,0,1,0,0)"
font-family="Ubuntu" font-size="12" font-weight="700" font-style="normal" 
>
<text fill="#000000" fill-opacity="1" stroke="none" xml:space="preserve" x="134.5" y="45.0312" font-family="Ubuntu" font-size="12" font-weight="700" font-style="normal" 
 >closeLook</text>
</g>

<g fill="#000000" fill-opacity="1" stroke="#000000" stroke-opacity="1" stroke-width="2" stroke-linecap="square" stroke-linejoin="bevel" transform="matrix(1,0,0,1,0,0)"
font-family="Ubuntu" font-size="12" font-weight="700" font-style="normal" 
>
<path vector-effect="none" fill-rule="evenodd" d="M268,40 L252.956,34.5404 C252.337,36.2441 252,38.0827 252,40 C252,41.9307 252.342,43.7815 252.969,45.4952 L268,40"/>
</g>
</g>
</svg>
