<?xml version="1.0" encoding="UTF-8" standalone="no"?>
<svg width="330.553mm" height="247.297mm"
 viewBox="0 0 937 701"
 xmlns="http://www.w3.org/2000/svg" xmlns:xlink="http://www.w3.org/1999/xlink"  version="1.2" baseProfile="tiny">
<title>PyQtSVNGenerator</title>
<desc>SVG generated using Qt+Python</desc>
<defs>
</defs>
<g fill="none" stroke="black" stroke-width="1" fill-rule="evenodd" stroke-linecap="square" stroke-linejoin="bevel" >

<g fill="#ffffff" fill-opacity="1" stroke="none" transform="matrix(1,0,0,1,0,0)"
font-family="Sans Serif" font-size="9" font-weight="400" font-style="normal" 
>
<path vector-effect="non-scaling-stroke" fill-rule="evenodd" d="M0,0 L4685,0 L4685,3505 L0,3505 L0,0"/>
</g>

<g fill="none" stroke="#000000" stroke-opacity="1" stroke-width="2" stroke-linecap="square" stroke-linejoin="bevel" transform="matrix(1,0,0,1,0,0)"
font-family="Ubuntu Mono" font-size="12" font-weight="400" font-style="normal" 
>
<path vector-effect="none" fill-rule="evenodd" d="M211,40 C211,57.1208 197.121,71 180,71 C162.879,71 149,57.1208 149,40 C149,22.8792 162.879,9 180,9 C197.121,9 211,22.8792 211,40 "/>
<text fill="#000000" fill-opacity="1" stroke="none" xml:space="preserve" x="177" y="37" font-family="Ubuntu Mono" font-size="12" font-weight="400" font-style="normal" 
 >g</text>
<text fill="#000000" fill-opacity="1" stroke="none" xml:space="preserve" x="159" y="50" font-family="Ubuntu Mono" font-size="12" font-weight="400" font-style="normal" 
 >gravity</text>
<path vector-effect="none" fill-rule="evenodd" d="M71,40 C71,57.1208 57.1208,71 40,71 C22.8792,71 9,57.1208 9,40 C9,22.8792 22.8792,9 40,9 C57.1208,9 71,22.8792 71,40 "/>
<text fill="#000000" fill-opacity="1" stroke="none" xml:space="preserve" x="19" y="37" font-family="Ubuntu Mono" font-size="12" font-weight="400" font-style="normal" 
 >gualzru</text>
<text fill="#000000" fill-opacity="1" stroke="none" xml:space="preserve" x="25" y="50" font-family="Ubuntu Mono" font-size="12" font-weight="400" font-style="normal" 
 >robot</text>
</g>

<g fill="#000000" fill-opacity="1" stroke="#000000" stroke-opacity="1" stroke-width="2" stroke-linecap="square" stroke-linejoin="bevel" transform="matrix(1,0,0,1,0,0)"
font-family="Ubuntu Mono" font-size="12" font-weight="400" font-style="normal" 
>
<polyline fill="none" vector-effect="none" points="72,40 149,40 " />
</g>

<g fill="#000000" fill-opacity="1" stroke="none" transform="matrix(1,0,0,1,0,0)"
font-family="Ubuntu Mono" font-size="12" font-weight="400" font-style="normal" 
>
<path vector-effect="non-scaling-stroke" fill-rule="evenodd" d="M86.7507,31.1006 L118.751,31.1006 L118.751,50.1006 L86.7507,50.1006 L86.7507,31.1006"/>
</g>

<g fill="#ffffff" fill-opacity="1" stroke="none" transform="matrix(1,0,0,1,0,0)"
font-family="Ubuntu Mono" font-size="12" font-weight="400" font-style="normal" 
>
<path vector-effect="non-scaling-stroke" fill-rule="evenodd" d="M88.7507,32.6006 L116.751,32.6006 L116.751,48.6006 L88.7507,48.6006 L88.7507,32.6006"/>
</g>

<g fill="#ffffff" fill-opacity="1" stroke="#000000" stroke-opacity="1" stroke-width="2" stroke-linecap="square" stroke-linejoin="bevel" transform="matrix(1,0,0,1,0,0)"
font-family="Ubuntu Mono" font-size="12" font-weight="400" font-style="normal" 
>
<text fill="#000000" fill-opacity="1" stroke="none" xml:space="preserve" x="90.75" y="44.0938" font-family="Ubuntu Mono" font-size="12" font-weight="400" font-style="normal" 
 >link</text>
</g>

<g fill="#000000" fill-opacity="1" stroke="#000000" stroke-opacity="1" stroke-width="2" stroke-linecap="square" stroke-linejoin="bevel" transform="matrix(1,0,0,1,0,0)"
font-family="Ubuntu Mono" font-size="12" font-weight="400" font-style="normal" 
>
<path vector-effect="none" fill-rule="evenodd" d="M148.5,39.5 L133.926,34.211 C133.327,35.8615 133,37.6426 133,39.5 C133,41.3704 133.331,43.1634 133.938,44.8235 L148.5,39.5"/>
</g>
</g>
</svg>
