<?xml version="1.0" encoding="UTF-8" standalone="no"?>
<svg width="330.553mm" height="247.297mm"
 viewBox="0 0 937 701"
 xmlns="http://www.w3.org/2000/svg" xmlns:xlink="http://www.w3.org/1999/xlink"  version="1.2" baseProfile="tiny">
<title>PyQtSVNGenerator</title>
<desc>SVG generated using Qt+Python</desc>
<defs>
</defs>
<g fill="none" stroke="black" stroke-width="1" fill-rule="evenodd" stroke-linecap="square" stroke-linejoin="bevel" >

<g fill="#ffffff" fill-opacity="1" stroke="none" transform="matrix(1,0,0,1,0,0)"
font-family="Sans Serif" font-size="9" font-weight="400" font-style="normal" 
>
<path vector-effect="non-scaling-stroke" fill-rule="evenodd" d="M0,0 L4685,0 L4685,3505 L0,3505 L0,0"/>
</g>

<g fill="none" stroke="#000000" stroke-opacity="1" stroke-width="2" stroke-linecap="square" stroke-linejoin="bevel" transform="matrix(1,0,0,1,0,0)"
font-family="Ubuntu Mono" font-size="12" font-weight="400" font-style="normal" 
>
<path vector-effect="none" fill-rule="evenodd" d="M261,40 C261,57.1208 247.121,71 230,71 C212.879,71 199,57.1208 199,40 C199,22.8792 212.879,9 230,9 C247.121,9 261,22.8792 261,40 "/>
<text fill="#000000" fill-opacity="1" stroke="none" xml:space="preserve" x="227" y="37" font-family="Ubuntu Mono" font-size="12" font-weight="400" font-style="normal" 
 >g</text>
<text fill="#000000" fill-opacity="1" stroke="none" xml:space="preserve" x="209" y="50" font-family="Ubuntu Mono" font-size="12" font-weight="400" font-style="normal" 
 >gravity</text>
<path vector-effect="none" fill-rule="evenodd" d="M71,40 C71,57.1208 57.1208,71 40,71 C22.8792,71 9,57.1208 9,40 C9,22.8792 22.8792,9 40,9 C57.1208,9 71,22.8792 71,40 "/>
<text fill="#000000" fill-opacity="1" stroke="none" xml:space="preserve" x="19" y="37" font-family="Ubuntu Mono" font-size="12" font-weight="400" font-style="normal" 
 >gualzru</text>
<text fill="#000000" fill-opacity="1" stroke="none" xml:space="preserve" x="25" y="50" font-family="Ubuntu Mono" font-size="12" font-weight="400" font-style="normal" 
 >robot</text>
</g>

<g fill="#000000" fill-opacity="1" stroke="#000000" stroke-opacity="1" stroke-width="2" stroke-linecap="square" stroke-linejoin="bevel" transform="matrix(1,0,0,1,0,0)"
font-family="Ubuntu Mono" font-size="12" font-weight="400" font-style="normal" 
>
<polyline fill="none" vector-effect="none" points="72,40 199,40 " />
</g>

<g fill="#000000" fill-opacity="1" stroke="none" transform="matrix(1,0,0,1,0,0)"
font-family="Ubuntu Mono" font-size="12" font-weight="400" font-style="normal" 
>
<path vector-effect="non-scaling-stroke" fill-rule="evenodd" d="M90.7502,31.061 L164.75,31.061 L164.75,50.061 L90.7502,50.061 L90.7502,31.061"/>
</g>

<g fill="#ffffff" fill-opacity="1" stroke="none" transform="matrix(1,0,0,1,0,0)"
font-family="Ubuntu Mono" font-size="12" font-weight="400" font-style="normal" 
>
<path vector-effect="non-scaling-stroke" fill-rule="evenodd" d="M92.7502,32.561 L162.75,32.561 L162.75,48.561 L92.7502,48.561 L92.7502,32.561"/>
</g>

<g fill="#ffffff" fill-opacity="1" stroke="#000000" stroke-opacity="1" stroke-width="2" stroke-linecap="square" stroke-linejoin="bevel" transform="matrix(1,0,0,1,0,0)"
font-family="Ubuntu Mono" font-size="12" font-weight="400" font-style="normal" 
>
<text fill="#000000" fill-opacity="1" stroke="none" xml:space="preserve" x="94.75" y="44.0469" font-family="Ubuntu Mono" font-size="12" font-weight="400" font-style="normal" 
 >lookTowards</text>
</g>

<g fill="#000000" fill-opacity="1" stroke="#000000" stroke-opacity="1" stroke-width="2" stroke-linecap="square" stroke-linejoin="bevel" transform="matrix(1,0,0,1,0,0)"
font-family="Ubuntu Mono" font-size="12" font-weight="400" font-style="normal" 
>
<path vector-effect="none" fill-rule="evenodd" d="M198.5,39.5 L183.926,34.211 C183.327,35.8615 183,37.6426 183,39.5 C183,41.3704 183.331,43.1634 183.938,44.8235 L198.5,39.5"/>
</g>
</g>
</svg>
