<?xml version="1.0" encoding="UTF-8" standalone="no"?>
<svg width="330.553mm" height="247.297mm"
 viewBox="0 0 937 701"
 xmlns="http://www.w3.org/2000/svg" xmlns:xlink="http://www.w3.org/1999/xlink"  version="1.2" baseProfile="tiny">
<title>PyQtSVNGenerator</title>
<desc>SVG generated using Qt+Python</desc>
<defs>
</defs>
<g fill="none" stroke="black" stroke-width="1" fill-rule="evenodd" stroke-linecap="square" stroke-linejoin="bevel" >

<g fill="#ffffff" fill-opacity="1" stroke="none" transform="matrix(1,0,0,1,0,0)"
font-family="Sans Serif" font-size="9" font-weight="400" font-style="normal" 
>
<path vector-effect="non-scaling-stroke" fill-rule="evenodd" d="M0,0 L4685,0 L4685,3505 L0,3505 L0,0"/>
</g>

<g fill="none" stroke="#000000" stroke-opacity="1" stroke-width="2" stroke-linecap="square" stroke-linejoin="bevel" transform="matrix(1,0,0,1,0,0)"
font-family="Ubuntu Mono" font-size="12" font-weight="400" font-style="normal" 
>
<path vector-effect="none" fill-rule="evenodd" d="M71,160 C71,177.121 57.1208,191 40,191 C22.8792,191 9,177.121 9,160 C9,142.879 22.8792,129 40,129 C57.1208,129 71,142.879 71,160 "/>
<text fill="#000000" fill-opacity="1" stroke="none" xml:space="preserve" x="25" y="157" font-family="Ubuntu Mono" font-size="12" font-weight="400" font-style="normal" 
 >floor</text>
<text fill="#000000" fill-opacity="1" stroke="none" xml:space="preserve" x="25" y="170" font-family="Ubuntu Mono" font-size="12" font-weight="400" font-style="normal" 
 >floor</text>
<path vector-effect="none" fill-rule="evenodd" d="M211,40 C211,57.1208 197.121,71 180,71 C162.879,71 149,57.1208 149,40 C149,22.8792 162.879,9 180,9 C197.121,9 211,22.8792 211,40 "/>
<text fill="#000000" fill-opacity="1" stroke="none" xml:space="preserve" x="165" y="37" font-family="Ubuntu Mono" font-size="12" font-weight="400" font-style="normal" 
 >robot</text>
<text fill="#000000" fill-opacity="1" stroke="none" xml:space="preserve" x="165" y="50" font-family="Ubuntu Mono" font-size="12" font-weight="400" font-style="normal" 
 >robot</text>
<path vector-effect="none" fill-rule="evenodd" d="M401,40 C401,57.1208 387.121,71 370,71 C352.879,71 339,57.1208 339,40 C339,22.8792 352.879,9 370,9 C387.121,9 401,22.8792 401,40 "/>
<text fill="#000000" fill-opacity="1" stroke="none" xml:space="preserve" x="364" y="37" font-family="Ubuntu Mono" font-size="12" font-weight="400" font-style="normal" 
 >w4</text>
<text fill="#000000" fill-opacity="1" stroke="none" xml:space="preserve" x="349" y="50" font-family="Ubuntu Mono" font-size="12" font-weight="400" font-style="normal" 
 >notWall</text>
<path vector-effect="none" fill-rule="evenodd" d="M301,150 C301,167.121 287.121,181 270,181 C252.879,181 239,167.121 239,150 C239,132.879 252.879,119 270,119 C287.121,119 301,132.879 301,150 "/>
<text fill="#000000" fill-opacity="1" stroke="none" xml:space="preserve" x="264" y="147" font-family="Ubuntu Mono" font-size="12" font-weight="400" font-style="normal" 
 >w3</text>
<text fill="#000000" fill-opacity="1" stroke="none" xml:space="preserve" x="258" y="160" font-family="Ubuntu Mono" font-size="12" font-weight="400" font-style="normal" 
 >wall</text>
<path vector-effect="none" fill-rule="evenodd" d="M161,150 C161,167.121 147.121,181 130,181 C112.879,181 99,167.121 99,150 C99,132.879 112.879,119 130,119 C147.121,119 161,132.879 161,150 "/>
<text fill="#000000" fill-opacity="1" stroke="none" xml:space="preserve" x="124" y="147" font-family="Ubuntu Mono" font-size="12" font-weight="400" font-style="normal" 
 >w2</text>
<text fill="#000000" fill-opacity="1" stroke="none" xml:space="preserve" x="118" y="160" font-family="Ubuntu Mono" font-size="12" font-weight="400" font-style="normal" 
 >wall</text>
<path vector-effect="none" fill-rule="evenodd" d="M71,40 C71,57.1208 57.1208,71 40,71 C22.8792,71 9,57.1208 9,40 C9,22.8792 22.8792,9 40,9 C57.1208,9 71,22.8792 71,40 "/>
<text fill="#000000" fill-opacity="1" stroke="none" xml:space="preserve" x="34" y="37" font-family="Ubuntu Mono" font-size="12" font-weight="400" font-style="normal" 
 >w1</text>
<text fill="#000000" fill-opacity="1" stroke="none" xml:space="preserve" x="28" y="50" font-family="Ubuntu Mono" font-size="12" font-weight="400" font-style="normal" 
 >wall</text>
</g>

<g fill="#000000" fill-opacity="1" stroke="#000000" stroke-opacity="1" stroke-width="2" stroke-linecap="square" stroke-linejoin="bevel" transform="matrix(1,0,0,1,0,0)"
font-family="Ubuntu Mono" font-size="12" font-weight="400" font-style="normal" 
>
<polyline fill="none" vector-effect="none" points="212,40 339,40 " />
</g>

<g fill="#000000" fill-opacity="1" stroke="none" transform="matrix(1,0,0,1,0,0)"
font-family="Ubuntu Mono" font-size="12" font-weight="400" font-style="normal" 
>
<path vector-effect="non-scaling-stroke" fill-rule="evenodd" d="M248.75,31.061 L286.75,31.061 L286.75,50.061 L248.75,50.061 L248.75,31.061"/>
</g>

<g fill="#ffffff" fill-opacity="1" stroke="none" transform="matrix(1,0,0,1,0,0)"
font-family="Ubuntu Mono" font-size="12" font-weight="400" font-style="normal" 
>
<path vector-effect="non-scaling-stroke" fill-rule="evenodd" d="M250.75,32.561 L284.75,32.561 L284.75,48.561 L250.75,48.561 L250.75,32.561"/>
</g>

<g fill="#ffffff" fill-opacity="1" stroke="#000000" stroke-opacity="1" stroke-width="2" stroke-linecap="square" stroke-linejoin="bevel" transform="matrix(1,0,0,1,0,0)"
font-family="Ubuntu Mono" font-size="12" font-weight="400" font-style="normal" 
>
<text fill="#000000" fill-opacity="1" stroke="none" xml:space="preserve" x="252.75" y="44.0469" font-family="Ubuntu Mono" font-size="12" font-weight="400" font-style="normal" 
 >looks</text>
</g>

<g fill="#000000" fill-opacity="1" stroke="#000000" stroke-opacity="1" stroke-width="2" stroke-linecap="square" stroke-linejoin="bevel" transform="matrix(1,0,0,1,0,0)"
font-family="Ubuntu Mono" font-size="12" font-weight="400" font-style="normal" 
>
<path vector-effect="none" fill-rule="evenodd" d="M338.5,39.5 L323.926,34.211 C323.327,35.8615 323,37.6426 323,39.5 C323,41.3704 323.331,43.1634 323.938,44.8235 L338.5,39.5"/>
</g>

<g fill="#000000" fill-opacity="1" stroke="#000000" stroke-opacity="1" stroke-width="2" stroke-linecap="square" stroke-linejoin="bevel" transform="matrix(1,0,0,1,0,0)"
font-family="Ubuntu Mono" font-size="12" font-weight="400" font-style="normal" 
>
<polyline fill="none" vector-effect="none" points="41,130 40,71 " />
</g>

<g fill="#000000" fill-opacity="1" stroke="none" transform="matrix(1,0,0,1,0,0)"
font-family="Ubuntu Mono" font-size="12" font-weight="400" font-style="normal" 
>
<path vector-effect="non-scaling-stroke" fill-rule="evenodd" d="M24.6313,98.7489 L56.6313,98.7489 L56.6313,117.749 L24.6313,117.749 L24.6313,98.7489"/>
</g>

<g fill="#ffffff" fill-opacity="1" stroke="none" transform="matrix(1,0,0,1,0,0)"
font-family="Ubuntu Mono" font-size="12" font-weight="400" font-style="normal" 
>
<path vector-effect="non-scaling-stroke" fill-rule="evenodd" d="M26.6313,100.249 L54.6313,100.249 L54.6313,116.249 L26.6313,116.249 L26.6313,100.249"/>
</g>

<g fill="#ffffff" fill-opacity="1" stroke="#000000" stroke-opacity="1" stroke-width="2" stroke-linecap="square" stroke-linejoin="bevel" transform="matrix(1,0,0,1,0,0)"
font-family="Ubuntu Mono" font-size="12" font-weight="400" font-style="normal" 
>
<text fill="#000000" fill-opacity="1" stroke="none" xml:space="preserve" x="28.625" y="111.734" font-family="Ubuntu Mono" font-size="12" font-weight="400" font-style="normal" 
 >link</text>
</g>

<g fill="#000000" fill-opacity="1" stroke="#000000" stroke-opacity="1" stroke-width="2" stroke-linecap="square" stroke-linejoin="bevel" transform="matrix(1,0,0,1,0,0)"
font-family="Ubuntu Mono" font-size="12" font-weight="400" font-style="normal" 
>
<path vector-effect="none" fill-rule="evenodd" d="M39.5,70.5 L34.211,85.0742 C35.8615,85.6733 37.6426,86 39.5,86 C41.3704,86 43.1634,85.6687 44.8235,85.0616 L39.5,70.5"/>
</g>

<g fill="#000000" fill-opacity="1" stroke="#000000" stroke-opacity="1" stroke-width="2" stroke-linecap="square" stroke-linejoin="bevel" transform="matrix(1,0,0,1,0,0)"
font-family="Ubuntu Mono" font-size="12" font-weight="400" font-style="normal" 
>
<polyline fill="none" vector-effect="none" points="60,64 110,126 " />
</g>

<g fill="#000000" fill-opacity="1" stroke="none" transform="matrix(1,0,0,1,0,0)"
font-family="Ubuntu Mono" font-size="12" font-weight="400" font-style="normal" 
>
<path vector-effect="non-scaling-stroke" fill-rule="evenodd" d="M64.6031,79.9931 L96.6031,79.9931 L96.6031,98.9931 L64.6031,98.9931 L64.6031,79.9931"/>
</g>

<g fill="#ffffff" fill-opacity="1" stroke="none" transform="matrix(1,0,0,1,0,0)"
font-family="Ubuntu Mono" font-size="12" font-weight="400" font-style="normal" 
>
<path vector-effect="non-scaling-stroke" fill-rule="evenodd" d="M66.6031,81.4931 L94.6031,81.4931 L94.6031,97.4931 L66.6031,97.4931 L66.6031,81.4931"/>
</g>

<g fill="#ffffff" fill-opacity="1" stroke="#000000" stroke-opacity="1" stroke-width="2" stroke-linecap="square" stroke-linejoin="bevel" transform="matrix(1,0,0,1,0,0)"
font-family="Ubuntu Mono" font-size="12" font-weight="400" font-style="normal" 
>
<text fill="#000000" fill-opacity="1" stroke="none" xml:space="preserve" x="68.5938" y="92.9844" font-family="Ubuntu Mono" font-size="12" font-weight="400" font-style="normal" 
 >link</text>
</g>

<g fill="#000000" fill-opacity="1" stroke="#000000" stroke-opacity="1" stroke-width="2" stroke-linecap="square" stroke-linejoin="bevel" transform="matrix(1,0,0,1,0,0)"
font-family="Ubuntu Mono" font-size="12" font-weight="400" font-style="normal" 
>
<path vector-effect="none" fill-rule="evenodd" d="M109.5,125.5 L104.383,110.864 C100.925,112.073 98.0256,114.474 96.1774,117.573 L109.5,125.5"/>
</g>

<g fill="#000000" fill-opacity="1" stroke="#000000" stroke-opacity="1" stroke-width="2" stroke-linecap="square" stroke-linejoin="bevel" transform="matrix(1,0,0,1,0,0)"
font-family="Ubuntu Mono" font-size="12" font-weight="400" font-style="normal" 
>
<polyline fill="none" vector-effect="none" points="162,151 239,150 " />
</g>

<g fill="#000000" fill-opacity="1" stroke="none" transform="matrix(1,0,0,1,0,0)"
font-family="Ubuntu Mono" font-size="12" font-weight="400" font-style="normal" 
>
<path vector-effect="non-scaling-stroke" fill-rule="evenodd" d="M176.751,141.101 L208.751,141.101 L208.751,160.101 L176.751,160.101 L176.751,141.101"/>
</g>

<g fill="#ffffff" fill-opacity="1" stroke="none" transform="matrix(1,0,0,1,0,0)"
font-family="Ubuntu Mono" font-size="12" font-weight="400" font-style="normal" 
>
<path vector-effect="non-scaling-stroke" fill-rule="evenodd" d="M178.751,142.601 L206.751,142.601 L206.751,158.601 L178.751,158.601 L178.751,142.601"/>
</g>

<g fill="#ffffff" fill-opacity="1" stroke="#000000" stroke-opacity="1" stroke-width="2" stroke-linecap="square" stroke-linejoin="bevel" transform="matrix(1,0,0,1,0,0)"
font-family="Ubuntu Mono" font-size="12" font-weight="400" font-style="normal" 
>
<text fill="#000000" fill-opacity="1" stroke="none" xml:space="preserve" x="180.75" y="154.094" font-family="Ubuntu Mono" font-size="12" font-weight="400" font-style="normal" 
 >link</text>
</g>

<g fill="#000000" fill-opacity="1" stroke="#000000" stroke-opacity="1" stroke-width="2" stroke-linecap="square" stroke-linejoin="bevel" transform="matrix(1,0,0,1,0,0)"
font-family="Ubuntu Mono" font-size="12" font-weight="400" font-style="normal" 
>
<path vector-effect="none" fill-rule="evenodd" d="M238.5,149.5 L223.926,144.211 C223.327,145.861 223,147.643 223,149.5 C223,151.37 223.331,153.163 223.938,154.823 L238.5,149.5"/>
</g>

<g fill="#000000" fill-opacity="1" stroke="#000000" stroke-opacity="1" stroke-width="2" stroke-linecap="square" stroke-linejoin="bevel" transform="matrix(1,0,0,1,0,0)"
font-family="Ubuntu Mono" font-size="12" font-weight="400" font-style="normal" 
>
<polyline fill="none" vector-effect="none" points="291,128 349,62 " />
</g>

<g fill="#000000" fill-opacity="1" stroke="none" transform="matrix(1,0,0,1,0,0)"
font-family="Ubuntu Mono" font-size="12" font-weight="400" font-style="normal" 
>
<path vector-effect="non-scaling-stroke" fill-rule="evenodd" d="M299.381,91.8187 L331.381,91.8187 L331.381,110.819 L299.381,110.819 L299.381,91.8187"/>
</g>

<g fill="#ffffff" fill-opacity="1" stroke="none" transform="matrix(1,0,0,1,0,0)"
font-family="Ubuntu Mono" font-size="12" font-weight="400" font-style="normal" 
>
<path vector-effect="non-scaling-stroke" fill-rule="evenodd" d="M301.381,93.3187 L329.381,93.3187 L329.381,109.319 L301.381,109.319 L301.381,93.3187"/>
</g>

<g fill="#ffffff" fill-opacity="1" stroke="#000000" stroke-opacity="1" stroke-width="2" stroke-linecap="square" stroke-linejoin="bevel" transform="matrix(1,0,0,1,0,0)"
font-family="Ubuntu Mono" font-size="12" font-weight="400" font-style="normal" 
>
<text fill="#000000" fill-opacity="1" stroke="none" xml:space="preserve" x="303.375" y="104.812" font-family="Ubuntu Mono" font-size="12" font-weight="400" font-style="normal" 
 >link</text>
</g>

<g fill="#000000" fill-opacity="1" stroke="#000000" stroke-opacity="1" stroke-width="2" stroke-linecap="square" stroke-linejoin="bevel" transform="matrix(1,0,0,1,0,0)"
font-family="Ubuntu Mono" font-size="12" font-weight="400" font-style="normal" 
>
<path vector-effect="none" fill-rule="evenodd" d="M348.5,62.5 L334.781,69.7205 C336.471,72.925 339.251,75.4656 342.628,76.8489 L348.5,62.5"/>
</g>
</g>
</svg>
