<?xml version="1.0" encoding="UTF-8" standalone="no"?>
<svg width="330.553mm" height="247.297mm"
 viewBox="0 0 937 701"
 xmlns="http://www.w3.org/2000/svg" xmlns:xlink="http://www.w3.org/1999/xlink"  version="1.2" baseProfile="tiny">
<title>PyQtSVNGenerator</title>
<desc>SVG generated using Qt+Python</desc>
<defs>
</defs>
<g fill="none" stroke="black" stroke-width="1" fill-rule="evenodd" stroke-linecap="square" stroke-linejoin="bevel" >

<g fill="#ffffff" fill-opacity="1" stroke="none" transform="matrix(1,0,0,1,0,0)"
font-family="Sans Serif" font-size="9" font-weight="400" font-style="normal" 
>
<path vector-effect="non-scaling-stroke" fill-rule="evenodd" d="M0,0 L4685,0 L4685,3505 L0,3505 L0,0"/>
</g>

<g fill="none" stroke="#000000" stroke-opacity="1" stroke-width="2" stroke-linecap="square" stroke-linejoin="bevel" transform="matrix(1,0,0,1,0,0)"
font-family="Ubuntu Mono" font-size="12" font-weight="400" font-style="normal" 
>
<path vector-effect="none" fill-rule="evenodd" d="M301,40 C301,57.1208 287.121,71 270,71 C252.879,71 239,57.1208 239,40 C239,22.8792 252.879,9 270,9 C287.121,9 301,22.8792 301,40 "/>
<text fill="#000000" fill-opacity="1" stroke="none" xml:space="preserve" x="267" y="37" font-family="Ubuntu Mono" font-size="12" font-weight="400" font-style="normal" 
 >g</text>
<text fill="#000000" fill-opacity="1" stroke="none" xml:space="preserve" x="249" y="50" font-family="Ubuntu Mono" font-size="12" font-weight="400" font-style="normal" 
 >gravity</text>
<path vector-effect="none" fill-rule="evenodd" d="M71,40 C71,57.1208 57.1208,71 40,71 C22.8792,71 9,57.1208 9,40 C9,22.8792 22.8792,9 40,9 C57.1208,9 71,22.8792 71,40 "/>
<text fill="#000000" fill-opacity="1" stroke="none" xml:space="preserve" x="19" y="37" font-family="Ubuntu Mono" font-size="12" font-weight="400" font-style="normal" 
 >gualzru</text>
<text fill="#000000" fill-opacity="1" stroke="none" xml:space="preserve" x="25" y="50" font-family="Ubuntu Mono" font-size="12" font-weight="400" font-style="normal" 
 >robot</text>
</g>

<g fill="#000000" fill-opacity="1" stroke="#000000" stroke-opacity="1" stroke-width="2" stroke-linecap="square" stroke-linejoin="bevel" transform="matrix(1,0,0,1,0,0)"
font-family="Ubuntu Mono" font-size="12" font-weight="400" font-style="normal" 
>
<polyline fill="none" vector-effect="none" points="72,40 239,40 " />
</g>

<g fill="#000000" fill-opacity="1" stroke="none" transform="matrix(1,0,0,1,0,0)"
font-family="Ubuntu Mono" font-size="12" font-weight="400" font-style="normal" 
>
<path vector-effect="non-scaling-stroke" fill-rule="evenodd" d="M110.75,31.0464 L184.75,31.0464 L184.75,50.0464 L110.75,50.0464 L110.75,31.0464"/>
</g>

<g fill="#ffffff" fill-opacity="1" stroke="none" transform="matrix(1,0,0,1,0,0)"
font-family="Ubuntu Mono" font-size="12" font-weight="400" font-style="normal" 
>
<path vector-effect="non-scaling-stroke" fill-rule="evenodd" d="M112.75,32.5464 L182.75,32.5464 L182.75,48.5464 L112.75,48.5464 L112.75,32.5464"/>
</g>

<g fill="#ffffff" fill-opacity="1" stroke="#000000" stroke-opacity="1" stroke-width="2" stroke-linecap="square" stroke-linejoin="bevel" transform="matrix(1,0,0,1,0,0)"
font-family="Ubuntu Mono" font-size="12" font-weight="400" font-style="normal" 
>
<text fill="#000000" fill-opacity="1" stroke="none" xml:space="preserve" x="114.75" y="44.0312" font-family="Ubuntu Mono" font-size="12" font-weight="400" font-style="normal" 
 >lookTowards</text>
</g>

<g fill="#000000" fill-opacity="1" stroke="#000000" stroke-opacity="1" stroke-width="2" stroke-linecap="square" stroke-linejoin="bevel" transform="matrix(1,0,0,1,0,0)"
font-family="Ubuntu Mono" font-size="12" font-weight="400" font-style="normal" 
>
<path vector-effect="none" fill-rule="evenodd" d="M238.5,39.5 L223.926,34.211 C223.327,35.8615 223,37.6426 223,39.5 C223,41.3704 223.331,43.1634 223.938,44.8235 L238.5,39.5"/>
</g>
</g>
</svg>
